<svg xmlns="http://www.w3.org/2000/svg" xmlns:xlink="http://www.w3.org/1999/xlink" viewBox="0 0 86.11 63.68"><defs><style>.cls-1,.cls-2{fill:none;}.cls-1{clip-rule:evenodd;}.cls-3,.cls-4{fill:#099cec;}.cls-10,.cls-4,.cls-8{fill-rule:evenodd;}.cls-5{clip-path:url(#clip-path);}.cls-6{clip-path:url(#clip-path-2);}.cls-7{fill:#fff;}.cls-8{fill:#026fb6;}.cls-9{fill:#4d5c64;}.cls-10{opacity:0.05;}.cls-11{fill:#066da5;}</style><clipPath id="clip-path" transform="translate(-44.98 -31.52)"><path class="cls-1" d="M67.63,79.82a50.17,50.17,0,0,1-15.18,2.55c4.95,4.12,13.76,11.91,28.29,7.46A22.57,22.57,0,0,1,67.63,79.82Z"/></clipPath><clipPath id="clip-path-2" transform="translate(-44.98 -31.52)"><rect class="cls-2" width="164.88" height="164.88"/></clipPath></defs><title>Asset 5</title><g id="Layer_2" data-name="Layer 2"><g id="Provider_icons" data-name="Provider icons"><rect class="cls-3" x="17.26" y="21.01" width="8.89" height="8.08"/><rect class="cls-3" x="6.75" y="21.01" width="8.89" height="8.08"/><rect class="cls-3" x="27.76" y="21.01" width="8.89" height="8.08"/><rect class="cls-3" x="38.27" y="21.01" width="8.89" height="8.08"/><rect class="cls-3" x="48.78" y="21.01" width="8.89" height="8.08"/><rect class="cls-3" x="17.26" y="11.32" width="8.89" height="8.08"/><rect class="cls-3" x="27.76" y="11.32" width="8.89" height="8.08"/><rect class="cls-3" x="38.27" y="11.32" width="8.89" height="8.08"/><rect class="cls-3" x="38.27" y="1.62" width="8.89" height="8.08"/><path class="cls-4" d="M129.13,55c-1.82-1.23-6.62-1.75-10.1-.81-.19-3.47-2-6.4-5.25-9l-1.21-.81-.81,1.22a13.93,13.93,0,0,0-2,8.54,10.17,10.17,0,0,0,2,5.29,13.27,13.27,0,0,1-7.68,2H46.28c-1,6.1.73,29.29,27.48,29.29,19.86,0,36.17-8.93,43.65-27.66,2.46,0,8.95.44,12.12-5.7.08-.1.81-1.63.81-1.63Z" transform="translate(-44.98 -31.52)"/><g class="cls-5"><g class="cls-6"><rect class="cls-7" x="3.44" y="44.25" width="36.37" height="19.43"/></g></g><path class="cls-8" d="M66.9,78.39a21.63,21.63,0,0,1-10.75,2.83,21.86,21.86,0,0,1-5.71-.76l1.15,1.94a23.52,23.52,0,0,0,16.1-2.59C67.4,79.35,67.14,78.88,66.9,78.39Z" transform="translate(-44.98 -31.52)"/><ellipse class="cls-7" cx="28.07" cy="42.99" rx="2.81" ry="2.83"/><path class="cls-9" d="M73.47,73.71a.8.8,0,0,1,.32-.63,1.58,1.58,0,0,0-.73-.18,1.62,1.62,0,1,0,1.61,1.62s0-.06,0-.09a.78.78,0,0,1-.37.1A.81.81,0,0,1,73.47,73.71Z" transform="translate(-44.98 -31.52)"/><path class="cls-10" d="M128.9,54.89c-1.82-1.22-6.79-1.79-10.11-.83l-.74,1C107.21,77.52,93.66,87,75.14,87.42c-20.2-.06-25.25-10.7-26.67-25.22H45.23c-.42,6.1,1.14,28.54,28.1,28.54,19.88,0,36.25-8.91,43.81-27.62,2.47,0,9.34,0,12.37-6.1l.61-1.3Z" transform="translate(-44.98 -31.52)"/><rect class="cls-11" x="8.37" y="22.63" width="0.81" height="4.85"/><rect class="cls-11" x="10.79" y="22.63" width="0.81" height="4.85"/><rect class="cls-11" x="13.21" y="22.63" width="0.81" height="4.85"/><rect class="cls-11" x="18.87" y="22.63" width="0.81" height="4.85"/><rect class="cls-11" x="21.3" y="22.63" width="0.81" height="4.85"/><rect class="cls-11" x="23.72" y="22.63" width="0.81" height="4.85"/><rect class="cls-11" x="29.38" y="22.63" width="0.81" height="4.85"/><rect class="cls-11" x="31.8" y="22.63" width="0.81" height="4.85"/><rect class="cls-11" x="34.23" y="22.63" width="0.81" height="4.85"/><rect class="cls-11" x="39.89" y="22.63" width="0.81" height="4.85"/><rect class="cls-11" x="42.31" y="22.63" width="0.81" height="4.85"/><rect class="cls-11" x="44.74" y="22.63" width="0.81" height="4.85"/><rect class="cls-11" x="50.39" y="22.63" width="0.81" height="4.85"/><rect class="cls-11" x="52.82" y="22.63" width="0.81" height="4.85"/><rect class="cls-11" x="55.24" y="22.63" width="0.81" height="4.85"/><rect class="cls-11" x="21.3" y="12.93" width="0.81" height="4.85"/><rect class="cls-11" x="23.72" y="12.93" width="0.81" height="4.85"/><rect class="cls-11" x="29.38" y="12.93" width="0.81" height="4.85"/><rect class="cls-11" x="31.8" y="12.93" width="0.81" height="4.85"/><rect class="cls-11" x="34.23" y="12.93" width="0.81" height="4.85"/><rect class="cls-11" x="39.89" y="12.93" width="0.81" height="4.85"/><rect class="cls-11" x="42.31" y="12.93" width="0.81" height="4.85"/><rect class="cls-11" x="44.74" y="12.93" width="0.81" height="4.85"/><rect class="cls-11" x="42.31" y="3.23" width="0.81" height="4.85"/><rect class="cls-11" x="39.89" y="3.23" width="0.81" height="4.85"/><rect class="cls-11" x="44.74" y="3.23" width="0.81" height="4.85"/><rect class="cls-11" x="18.87" y="12.93" width="0.81" height="4.85"/><path class="cls-11" d="M129.3,54.23c-1.94-1.31-6.37-1.8-9.84-1.13-.45-3.27-2.28-6.11-5.5-8.61l-1.91-1.28-1.26,1.9a14.72,14.72,0,0,0-2.15,9.06,11.48,11.48,0,0,0,1.67,5,13.54,13.54,0,0,1-6,1.43V50.92H93.76V31.52H81.63v9.7h-21v9.7H50.11V60.6H45.32l-.11.68a25.69,25.69,0,0,0,.1,7.4,29.33,29.33,0,0,0,3.32,10.06c4.48,8,12.63,12.77,24.86,12.77,20.82,0,36.76-9.61,44.18-27.65a16.43,16.43,0,0,0,6.2-.8A10.62,10.62,0,0,0,130,57.75c.08-.13.19-.36.44-.86l.27-.57.12-.26.31-.64ZM93.76,52.54h8.89V60.6H93.76ZM83.25,33.14h8.89v8.08H83.25Zm0,9.7h8.89v8.08H83.25Zm0,9.7h8.89V60.6H83.25Zm-10.51-9.7h8.89v8.08H72.74Zm0,9.7h8.89V60.6H72.74Zm-10.51-9.7h8.89v8.08H62.24Zm0,9.7h8.89V60.6H62.24Zm-10.51,0h8.89V60.6H51.73Zm77.2,3.66-.25.5-.14.27a9,9,0,0,1-5.2,4.55,15.24,15.24,0,0,1-5.78.71h-1l-.21.52c-7.07,17.73-22.51,27.15-42.9,27.15C61.83,89.89,54.22,85.48,50,78a27.71,27.71,0,0,1-3.13-9.5,25.83,25.83,0,0,1-.2-6.22h57.56v0A13.83,13.83,0,0,0,112,60l.66-.51-.53-.65A9.31,9.31,0,0,1,110.25,54a13.08,13.08,0,0,1,1.89-8l.36-.54.52.35c3.14,2.45,4.75,5.17,4.92,8.33l.05,1,1-.26c3.15-.85,7.76-.43,9.45.7L129,56Z" transform="translate(-44.98 -31.52)"/></g></g></svg>